<svg width="200" height="140" viewBox="0 0 200 140" fill="none" xmlns="http://www.w3.org/2000/svg">
<path d="M107.066 91.4648C107.066 91.4648 107.409 100.71 107.225 102.696C107.167 103.311 111.564 103.353 111.564 103.353L111.641 92.718L107.066 91.4648Z" fill="#FBF6A6"/>
<path d="M142.347 103.785L142.323 103.596C142.41 103.587 151.318 102.546 160.096 99.9736C168.173 97.6092 177.792 93.4335 177.749 86.9691C177.681 76.9107 137.438 73.1749 101.935 69.8788C70.852 66.9942 44.0057 64.502 44.4555 58.4963C44.7312 54.822 54.5827 51.6158 73.7393 48.9676C88.7947 46.8868 104.324 45.9174 107.381 45.8276C107.98 45.8086 108.706 45.7897 109.542 45.7708C122.03 45.4398 160.038 44.4325 160.038 39.2165C160.038 35.5753 146.395 34.0857 135.431 32.894C126.513 31.9198 119.466 31.1537 119.481 29.527C119.515 25.2662 130.101 25.2852 140.345 25.2852H141.699V25.4743H140.345C130.658 25.4649 119.703 25.4554 119.674 29.527C119.665 30.9835 127.335 31.8205 135.455 32.7048C147.072 33.9722 160.236 35.405 160.236 39.2165C160.236 44.0589 131.311 45.383 109.552 45.96C108.715 45.9836 107.99 46.0025 107.39 46.0167C100.034 46.2295 45.2874 50.0789 44.6538 58.5105C44.2185 64.3318 72.2642 66.9327 101.959 69.6897C120.148 71.3779 138.962 73.1229 153.422 75.7379C169.894 78.7124 177.918 82.3868 177.952 86.9691C177.995 93.5518 168.298 97.7747 160.159 100.158C151.357 102.735 142.439 103.776 142.347 103.785Z" fill="#767676"/>
<path d="M113.009 29.0059C113.009 29.0059 114.552 32.9309 108.889 36.5721C103.685 34.9548 106.848 30.765 107.336 30.3252C107.82 29.8854 113.009 29.0059 113.009 29.0059Z" fill="#17231A"/>
<path d="M108.98 40.175C106.848 41.7497 106.18 45.9301 106.18 45.9301C106.18 45.9301 104.028 45.618 101.784 43.2819C105.324 38.2882 105.701 35.8906 105.701 35.8906L108.98 40.175Z" fill="#776055"/>
<path d="M113.842 36.1672C113.59 35.4815 111.777 29.5089 111.598 28.9414C111.598 28.9414 110.543 29.698 109.417 29.4285C108.333 29.1684 105.291 29.4805 104.058 31.4619C100.948 36.4557 104.445 39.9219 107.961 40.8204C109.842 41.3028 111.008 41.3075 111.83 40.6738C112.691 40.0118 112.681 38.7113 112.995 36.9616C113.242 36.9285 113.552 36.8954 113.721 36.7867C113.934 36.659 113.943 36.4415 113.842 36.1672Z" fill="#80685A"/>
<path d="M111.804 28.9537C112.283 28.2255 110.847 27.3601 109.701 26.5704C107.916 25.3456 104.864 25.2841 101.996 26.7642C99.8975 27.8472 97.8808 31.9424 99.1431 35.612C100.115 38.4305 100.13 41.5847 101.339 41.4002C102.882 41.1685 107.021 37.6171 106.77 34.6379C106.359 29.8617 111.669 29.1571 111.804 28.9537Z" fill="#24372B"/>
<path d="M106.753 34.5491L106.741 34.7852L109.349 34.9131L109.361 34.677L106.753 34.5491Z" fill="#FBF6A6"/>
<path d="M98.4421 32.4331C95.6468 33.4168 92.8078 32.017 91.4005 30.5085C89.6643 28.6453 89.1371 26.1342 85.9838 26.7821C83.3045 27.3354 82.9515 28.1913 80.2819 28.2812C77.6122 28.371 76.0791 24.7392 73.5401 26.4889L67.5527 37.6444C67.5527 37.6444 68.6022 44.9742 81.0847 41.6498C86.3998 40.0136 84.9247 42.3497 89.7175 44.2791C95.1293 46.4591 106.074 40.8695 105.61 36.9209C105.339 34.5848 100.188 36.4338 99.4191 34.1308C98.6501 31.8278 101.238 31.4495 98.4421 32.4331Z" fill="#17231A"/>
<path d="M92.2232 40.3975C88.2332 40.3975 84.2578 38.4918 81.8638 36.6759C79.494 34.8789 77.4483 35.8105 75.2865 36.7988C72.8538 37.9101 70.3389 39.0545 67.0599 36.6806L67.147 36.5671C70.3535 38.889 72.8296 37.7635 75.2236 36.6711C77.4289 35.6639 79.5134 34.7134 81.9509 36.5671C84.6544 38.6195 89.3939 40.79 93.8578 40.1469C96.6048 39.7544 98.8731 38.3546 100.6 35.9949L100.716 36.0753C98.9698 38.4681 96.6677 39.8868 93.8772 40.2888C93.3258 40.3597 92.7745 40.3975 92.2232 40.3975Z" fill="#345848"/>
<path d="M92.6681 36.964C89.6357 36.964 87.677 34.9116 85.9408 33.0862C84.606 31.6865 83.3485 30.3624 81.7622 30.055C80.1953 29.7476 78.7589 30.2678 77.2403 30.8211C75.0446 31.6203 72.5588 32.5235 69.0089 31.2278L69.0573 31.0954C72.5588 32.3722 75.0156 31.4784 77.1871 30.6887C78.725 30.1307 80.1808 29.601 81.7864 29.9131C83.4162 30.2347 84.693 31.573 86.0423 32.9869C87.9478 34.9873 89.9162 37.0491 93.1952 36.7984C98.9311 36.3492 99.7774 32.8924 99.7871 32.8593L99.9273 32.8876C99.9177 32.9255 99.0568 36.4816 93.2049 36.9403C93.0259 36.9545 92.8422 36.964 92.6681 36.964Z" fill="#345848"/>
<path d="M53.3693 96.2235C52.5036 96.2235 47.5948 95.6182 47.0193 97.4388C46.4437 99.2595 47.0193 103.515 48.1751 104.423C49.3262 105.336 53.3693 96.2235 53.3693 96.2235Z" fill="#FF1F1F"/>
<path d="M100.17 42.9822L103.192 40.334C103.192 40.334 105.707 42.514 107.511 43.9989C107.129 44.8643 106.191 47.5834 106.191 47.5834L100.17 42.9822Z" fill="#FEF8F8"/>
<path d="M53.3331 54.8553C53.2557 55.1438 52.8591 85.4845 53.5072 85.6973C54.4986 86.0236 57.9179 85.7682 61.6515 85.7446C65.7188 85.7162 69.6846 86.1229 69.8394 85.8628C70.1392 85.3663 70.676 54.25 70.676 54.25L53.3331 54.8553Z" fill="#17A3A9"/>
<path d="M56.9604 76.9817C57.1974 77.0952 66.4202 77.029 66.5894 76.7027C66.7587 76.3764 66.3718 63.9961 66.3718 63.9961C66.3718 63.9961 56.8153 64.7149 56.854 64.9088C56.8927 65.1074 56.7234 76.8682 56.9604 76.9817Z" fill="#17A3A9"/>
<path d="M56.8211 63.0795C56.8453 63.4672 56.0376 66.5978 57.3482 66.9288C58.6589 67.2551 64.7188 66.9808 65.3958 66.7869C66.0729 66.5931 66.5517 66.5741 66.6533 65.6142C66.7597 64.6542 66.8129 62.9707 66.8129 62.9707L56.8211 63.0795Z" fill="#62C0C3"/>
<path d="M53.131 53.7867C52.9617 54.0563 52.686 55.8627 53.2761 56.9882C53.6291 57.6644 54.3449 57.8867 55.4476 57.9576C58.3977 58.1515 68.3992 57.5651 70.0048 57.6692C71.6105 57.7779 72.2343 55.3567 72.2875 54.4582C72.3407 53.5597 72.3407 53.5597 72.3407 53.5597C72.3407 53.5597 53.4066 53.3564 53.131 53.7867Z" fill="#62C0C3"/>
<path d="M54.8229 85.4849C55.1518 79.8102 57.9085 53.2006 57.9375 52.931L57.7537 52.9121C57.7247 53.1817 54.968 79.796 54.6392 85.4754L54.8229 85.4849Z" fill="#24372B"/>
<path d="M46.4948 85.4671L46.4924 85.6562L74.7239 85.9902L74.7262 85.8011L46.4948 85.4671Z" fill="#24372B"/>
<path d="M58.6069 96.1191L55.531 85.6067L55.7196 85.5547L58.7955 96.0671L58.6069 96.1191Z" fill="#24372B"/>
<path d="M127.441 62.0117C127.441 62.0117 128.737 62.669 129.037 64.8538C129.414 67.606 127.91 68.9774 127.91 68.9774L127.441 62.0117Z" fill="#FBF6A6"/>
<path d="M133.578 97.0968C131.537 100.161 128.393 107.113 125.38 110.447C122.251 113.903 117.516 117.72 112.999 117.876C109.701 117.989 87.0382 117.322 84.3057 114.816C81.578 112.31 90.293 102.847 81.8682 97.0543C73.6175 91.3796 69.1923 90.2021 69.1923 90.2021L74.7298 87.2891L100.367 90.0507C100.367 90.0507 93.335 101.859 97.2282 107.496C99.7866 111.198 103.162 111.529 105.677 111.634C109.561 111.794 113.29 112.556 115.872 110.101C118.779 107.335 124.253 96.4915 125.129 93.1198" fill="#466758"/>
<path d="M73.9275 107.367L65.7736 105.83L65.9138 105.301L74.653 106.374L73.9275 107.367Z" fill="#D8EDF1"/>
<path d="M72.5002 88.6323C72.5002 88.6323 72.1665 84.8444 73.0467 83.6811C73.9269 82.5178 74.9909 81.9409 76.7464 81.9409C78.5068 81.9409 89.9157 82.1253 91.5165 81.9125C93.9491 81.591 99.3077 82.8157 100.333 83.2508C101.358 83.6859 102.239 88.0507 101.944 88.6323C101.648 89.214 100.333 90.0888 100.333 90.0888L72.5002 88.6323Z" fill="#80685A"/>
<path d="M128.205 109.257C127.606 110.132 127.378 115.017 129.182 118.076C130.981 121.136 134.434 124.2 140.586 124.125C146.82 124.049 149.814 121.136 151.84 117.126C154.312 112.236 152.59 106.921 150.041 103.715C147.492 100.509 142.763 98.7589 136.838 100.509C129.893 102.561 128.205 109.257 128.205 109.257Z" fill="#28362C"/>
<path d="M53.0629 108.93C52.4632 109.814 52.2359 114.742 54.0398 117.83C55.8389 120.918 59.292 124.011 65.4438 123.935C71.6778 123.859 74.6714 120.918 76.6978 116.875C79.1692 111.938 77.4475 106.575 74.8987 103.341C72.35 100.106 67.6201 98.3374 61.6957 100.106C54.7459 102.173 53.0629 108.93 53.0629 108.93Z" fill="#28362C"/>
<path d="M65.4385 116.579C62.4206 116.579 60.3556 114.654 59.7123 112.867C59.0159 110.928 59.4318 109.599 59.6543 108.89C59.6833 108.8 60.3507 106.691 62.5077 105.58C64.8001 104.397 67.4891 104.913 68.9593 106.038C70.5746 107.268 71.508 110.238 70.9954 112.517C70.4392 115.009 68.4128 116.527 65.5787 116.579C65.5304 116.579 65.482 116.579 65.4385 116.579ZM65.3321 105.093C64.4229 105.093 63.475 105.286 62.5899 105.745C60.5055 106.823 59.8622 108.857 59.8332 108.947C59.6156 109.637 59.2142 110.928 59.8913 112.805C60.5151 114.531 62.5125 116.39 65.4385 116.39C65.482 116.39 65.5304 116.39 65.5739 116.39C68.3113 116.338 70.2651 114.872 70.8019 112.474C71.3001 110.257 70.3957 107.377 68.8336 106.185C67.9775 105.532 66.6959 105.093 65.3321 105.093Z" fill="white"/>
<path d="M120.97 70.3068C120.97 70.3068 119.282 70.5054 119.659 73.0685C120.036 75.6315 122.933 84.5266 122.658 92.1165C122.377 99.9145 120.22 102.085 117.405 105.637C114.591 109.188 113.469 109.978 113.469 109.978C113.469 109.978 117.217 110.767 120.781 108.398C124.346 106.029 141.974 97.2474 141.974 97.2474C141.974 97.2474 144.411 89.1562 134.192 82.6398C126.43 77.6933 123.035 70.6993 122.846 69.7109C121.719 70.1129 120.97 70.3068 120.97 70.3068Z" fill="#466758"/>
<path d="M117.875 66.8755C118.015 66.8282 119.002 66.9228 119.514 67.3815C120.032 67.8402 120.641 68.8049 120.97 70.5924C122.189 70.5026 122.847 69.7223 122.847 69.7223C122.847 69.7223 122.706 69.675 123.645 69.7223C124.583 69.7696 127.373 69.5615 127.818 69.0792C128.263 68.5968 128.379 64.0382 127.069 61.4704C125.99 61.1015 123.973 61.1488 121.865 62.7519C119.756 64.355 119.287 64.9981 118.726 65.1826C118.165 65.367 117.27 65.5041 117.27 65.5041L117.875 66.8755Z" fill="#466758"/>
<path d="M126.009 118.903C126.009 118.903 122.629 109.058 126.812 102.404C130.575 96.4125 137.969 94.0481 143.594 95.9538C149.223 97.8596 153.344 103.251 152.942 104.735C152.541 106.22 150.529 106.849 148.121 106.849C145.712 106.849 141.969 105.005 138.095 107.218C134.811 109.095 135.861 111.502 134.453 114.463C133.046 117.423 130.434 119.963 126.009 118.903Z" fill="#466758"/>
<path d="M46.1765 106.758C45.364 105.68 52.8022 93.1055 63.002 90.8876C68.1768 89.7622 72.8535 89.4548 76.9885 91.1194C84.8717 94.2877 88.6247 103.764 88.2474 109.884C88.0685 112.787 87.6864 115.213 87.6864 115.213C87.6864 115.213 72.4956 115.606 57.8707 111.463C54.3305 110.456 46.989 107.836 46.1765 106.758Z" fill="#466758"/>
<path d="M73.8936 111.103C70.0052 110.956 65.7541 110.218 65.7106 110.214L65.7444 110.029C65.788 110.039 70.0294 110.772 73.9033 110.918L73.8936 111.103Z" fill="#28362C"/>
<path d="M74.3146 109.325C70.4552 109.179 66.3057 108.465 66.1316 108.436L66.1654 108.252C66.3396 108.28 70.4794 108.994 74.3243 109.141L74.3146 109.325Z" fill="#28362C"/>
<path d="M74.7361 107.402C70.8477 107.255 66.5966 106.517 66.5531 106.513L66.587 106.328C66.6305 106.338 70.8671 107.071 74.7458 107.217L74.7361 107.402Z" fill="#28362C"/>
<path d="M91.1445 80.4971C93.9592 80.4971 97.0351 80.4073 99.9224 80.133L99.9127 80.0195C91.2993 80.8329 81.0366 80.029 80.9351 80.0195L80.9254 80.133C80.998 80.1377 85.5586 80.4971 91.1445 80.4971Z" fill="#DEF4F8"/>
<path d="M126.691 69.351L126.502 69.3179C127.233 65.1186 125.787 62.3096 125.772 62.2813L125.941 62.1914C125.956 62.2245 127.441 65.0524 126.691 69.351Z" fill="#28362C"/>
<path opacity="0.5" d="M126.817 102.399C126.145 103.467 125.671 104.617 125.342 105.794C131.794 102.318 141.974 97.249 141.974 97.249C141.974 97.249 142.163 96.6247 142.216 95.5797C136.809 94.4589 130.28 96.8896 126.817 102.399Z" fill="#28362C"/>
<path opacity="0.5" d="M87.6812 115.21C87.6812 115.21 88.0681 112.784 88.2422 109.881C88.6195 103.761 84.8665 94.2893 76.9834 91.1162C74.691 90.1941 72.2341 89.882 69.6128 89.9718L69.1873 90.1941C69.1873 90.1941 73.6125 91.3716 81.8632 97.0463C90.288 102.839 81.573 112.306 84.3007 114.808C84.4458 114.945 84.615 115.073 84.794 115.196C86.6221 115.238 87.6812 115.21 87.6812 115.21Z" fill="#28362C"/>
<path d="M73.5947 98.4588C72.197 98.4588 68.6617 97.0921 67.1673 96.4301C67.0996 96.4017 67.0125 96.3355 66.9738 96.2031C66.7272 95.4181 68.7439 92.1693 69.1453 91.5215L69.3098 91.6208C68.4247 93.0253 66.9738 95.56 67.1576 96.1464C67.1721 96.1984 67.206 96.2362 67.2495 96.2551C68.7294 96.9124 72.2309 98.2649 73.5947 98.2649C73.7205 98.2649 73.8269 98.2507 73.8994 98.2271C74.6345 97.9954 76.187 95.5127 76.9898 94.0846L77.1591 94.1744C76.9318 94.5764 74.9295 98.0994 73.9574 98.4068C73.8656 98.4446 73.7446 98.4588 73.5947 98.4588Z" fill="#28362C"/>
<path d="M140.402 117.185C137.384 117.185 135.319 115.279 134.676 113.506C133.975 111.581 134.396 110.267 134.618 109.562C134.647 109.477 135.305 107.387 137.471 106.28C139.764 105.107 142.453 105.623 143.923 106.734C145.538 107.954 146.472 110.896 145.964 113.156C145.408 115.625 143.381 117.128 140.547 117.185C140.494 117.185 140.446 117.185 140.402 117.185ZM140.296 105.803C139.387 105.803 138.439 105.996 137.554 106.45C135.464 107.519 134.826 109.534 134.797 109.619C134.579 110.304 134.173 111.581 134.855 113.444C135.474 115.156 137.476 116.996 140.402 116.996C140.446 116.996 140.489 116.996 140.538 116.996C143.275 116.944 145.234 115.492 145.771 113.118C146.269 110.924 145.364 108.072 143.802 106.89C142.941 106.238 141.664 105.803 140.296 105.803Z" fill="white"/>
<path d="M124.306 65.6969L124.471 65.6165C124.446 65.5645 121.864 60.4384 121.109 58.4475C120.331 56.3857 117.753 56.5938 117.729 56.5938L117.743 56.7735C117.768 56.7687 120.205 56.5796 120.935 58.509C121.695 60.514 124.277 65.6449 124.306 65.6969Z" fill="white"/>
<path d="M116.283 52.0537C116.893 51.1835 118.194 53.4014 118.271 54.8957C118.348 56.3901 118.155 57.2507 117.202 58.4093C116.487 59.2747 116.361 59.1943 116.133 59.2322C115.234 59.374 115.674 52.9238 116.283 52.0537Z" fill="white"/>
<path d="M68.679 85.8808L68.8628 85.8666C68.3937 80.66 65.6128 53.7383 65.2501 53.1992L65.0953 53.2985C65.4339 53.9322 68.0987 79.4116 68.679 85.8808Z" fill="#24372B"/>
<path d="M74.6581 80.981C75.6689 84.5749 78.9624 85.3174 81.192 85.4592C87.1406 85.8281 106.002 78.1673 107.061 79.0563C108.12 79.9501 101.325 83.4967 104.488 87.7055C105.596 89.3701 108.101 90.2118 104.682 94.6664C102.143 97.9767 107.279 100.176 107.279 100.176L113.977 100.128C113.977 100.128 111.835 89.2755 115.863 73.8072C116.27 72.2467 112.009 69.8113 110.485 69.9058C106.563 70.1517 89.786 72.1946 89.786 72.1946C89.786 72.1946 89.3846 71.7974 89.3169 71.7927L79.7846 66.5625C79.7846 66.5672 73.2072 75.817 74.6581 80.981Z" fill="#17231A"/>
<path d="M109.803 63.9391C109.803 63.9391 111.878 67.1595 112.366 67.5189C112.855 67.8783 118.102 68.4742 118.711 68.233C119.321 67.9918 120.544 67.5189 120.177 66.5637C119.809 65.6084 118.223 63.4615 117.613 63.3433C117.004 63.2251 109.803 63.9391 109.803 63.9391Z" fill="#80685A"/>
<path d="M99.0274 47.3157C97.0252 48.1859 83.9575 58.3247 82.2552 61.1809C82.1246 61.668 84.92 66.4537 84.92 66.4537L113.27 67.8676L113.904 63.5359C113.904 63.5359 106.18 61.6774 97.1606 59.7008C96.1305 59.4738 106.359 51.9075 105.295 48.4365C103.777 43.4806 99.0274 47.3157 99.0274 47.3157Z" fill="#FFE0DB"/>
<path d="M114.939 65.7292C114.876 65.9231 114.77 66.2635 114.954 66.7695C115.137 67.2755 115.718 67.7484 116.496 67.7342C117.275 67.72 117.778 67.2897 117.918 66.6797C118.054 66.0697 117.797 65.2988 117.381 64.9867C116.966 64.6746 116.269 64.5706 115.689 64.8685C115.108 65.1664 114.939 65.7292 114.939 65.7292Z" fill="#28362C"/>
<path d="M102.049 41.4165C102.006 41.3834 99.8102 43.1567 99.6941 43.1993C97.9482 44.4051 90.0118 50.9358 78.2355 54.0285C69.6994 56.2747 57.7586 56.9982 57.7586 56.9982C57.7586 56.9982 53.9621 68.5084 64.5923 68.4186C85.4899 68.2342 84.3389 73.0624 84.3389 73.0624L93.6439 71.7619L104.941 50.5622C104.995 50.4771 106.194 47.5972 106.209 47.531C106.712 45.001 106.16 41.8421 102.049 41.4165Z" fill="#FEC7BD"/>
<path d="M89.3167 71.7985L79.7844 66.5684C79.7844 66.5684 78.9719 67.6324 77.9756 69.2307C83.6437 70.1434 84.345 73.0659 84.345 73.0659L93.65 71.7654L93.6694 71.7323C91.3673 72.0066 89.7907 72.1958 89.7907 72.1958C89.7907 72.1958 89.3844 71.7985 89.3167 71.7985Z" fill="#E5BBB7"/>
<path d="M84.3068 73.0208L79.2156 74.5782L79.2589 74.7136L84.3501 73.1562L84.3068 73.0208Z" fill="#345848"/>
<path d="M141.921 25.6714C141.8 25.7092 137.906 20.6067 138.187 18.0862C138.429 15.8683 140.682 14.5773 142.69 15.1259C144.585 15.6461 145.557 17.4289 145.267 18.9516C144.798 21.4248 142.041 25.6335 141.921 25.6714Z" fill="#FF1700"/>
<path d="M144.155 18.4858C144.194 19.2991 143.967 19.8193 143.469 20.3679C143.077 20.7982 142.492 21.0157 141.916 21.0157C140.871 21.0157 140.528 20.8644 139.803 20.103C139.43 19.7105 139.213 18.5141 139.363 17.9845C139.556 17.2941 139.778 16.807 140.364 16.4287C141.573 15.6531 143.207 15.8896 143.841 17.1995C144.039 17.6156 144.18 18.0507 144.155 18.4858Z" fill="white"/>
<path d="M111.607 37.0444C110.369 37.0444 109.324 36.1033 109.242 34.8785C109.155 33.6017 110.146 32.4952 111.452 32.41C112.753 32.3202 113.89 33.2944 113.977 34.5712C114.064 35.848 113.072 36.9545 111.766 37.0397C111.708 37.0397 111.66 37.0444 111.607 37.0444ZM111.607 32.637C111.558 32.637 111.51 32.637 111.467 32.6418C110.296 32.7174 109.406 33.7105 109.484 34.8596C109.561 36.004 110.582 36.8694 111.752 36.7985C112.922 36.7228 113.812 35.7297 113.735 34.5806C113.657 33.4835 112.719 32.637 111.607 32.637Z" fill="#FBF6A6"/>
<path d="M112.879 29.3667C112.879 29.3667 112.318 33.5328 105.562 34.0861C101.784 30.2321 106.606 28.0331 107.249 27.8723C107.893 27.7115 112.879 29.3667 112.879 29.3667Z" fill="#17231A"/>
<path d="M45.6059 121.725C45.2384 121.725 44.895 121.578 44.5952 121.285C43.7488 120.458 43.5795 119.176 44.1115 117.578C45.1707 114.386 48.5899 110.759 52.8265 108.328C54.703 102.285 55.854 95.943 56.062 90.467C56.2893 84.5085 55.4865 76.895 50.3552 74.4738C43.2894 71.1399 36.0156 76.6254 31.1599 81.8178C25.8207 87.5303 22.2031 94.042 22.1693 94.1082L22 94.0184C22.0339 93.9522 25.6611 87.4215 31.0197 81.6901C35.9188 76.4505 43.2652 70.9129 50.4422 74.3035C55.6654 76.772 56.4876 84.4612 56.2603 90.4764C56.0475 95.9761 54.8916 102.351 53.0055 108.418L52.9958 108.451L52.9619 108.47C48.7495 110.877 45.3496 114.476 44.3001 117.63C43.7923 119.157 43.9471 120.373 44.7402 121.143C45.1417 121.536 45.6108 121.626 46.1379 121.422C48.1402 120.652 50.863 115.577 53.0635 108.498L53.0732 108.46L53.107 108.442C55.4043 107.136 57.7934 106.29 60.2115 105.921C64.7335 105.226 71.3205 106.02 77.0177 113.743L76.8629 113.851C71.2238 106.21 64.7093 105.425 60.2406 106.105C57.8611 106.47 55.501 107.307 53.2376 108.588C51.0177 115.705 48.2611 120.808 46.2105 121.602C45.9977 121.687 45.7994 121.725 45.6059 121.725Z" fill="white"/>
<path d="M113.793 29.9741C113.851 28.9715 112.574 26.6355 110.562 25.3539C108.197 23.8407 104.628 24.1244 102.162 25.562C98.636 27.6238 98.1863 31.4779 98.8924 33.8281C99.5114 35.8852 101.543 38.4199 101.543 38.4199C101.543 38.4199 103.056 38.8928 103.966 38.9117C104.875 38.9306 105.702 38.8928 106.442 37.9045C107.182 36.9208 107.08 36.3439 106.892 34.8543C106.703 33.3647 107.022 32.6554 107.709 31.9744C108.284 31.3975 108.933 31.1185 110.374 30.9199C111.815 30.7212 113.778 30.2956 113.793 29.9741Z" fill="white"/>
<path d="M99.8932 34.3227L99.7626 34.266C99.7771 34.2376 100.096 33.5377 100.943 32.9419C101.721 32.3933 103.109 31.8306 105.31 32.2893C111.225 33.5141 112.206 30.6436 112.216 30.6152L112.356 30.6578C112.347 30.6862 111.331 33.689 105.281 32.4311C103.138 31.9866 101.789 32.5257 101.035 33.0554C100.212 33.6228 99.8932 34.3132 99.8932 34.3227Z" fill="#345848"/>
<path d="M105.65 110.304C105.65 110.304 118.684 112.361 122.345 111.675C122.282 110.237 120.019 110.167 118.771 109.765C117.886 109.476 113.553 107.481 112.518 105.433C111.749 103.91 111.662 101.811 111.662 101.811L107.067 101.858C107.067 101.858 107.329 105.055 106.564 106.733C105.36 109.4 105.65 110.304 105.65 110.304Z" fill="#17231A"/>
<path d="M112.337 105.069L111.278 104.715C111.249 104.705 111.225 104.682 111.215 104.653C111.206 104.625 111.211 104.592 111.23 104.568L111.902 103.693L112.057 103.807L111.462 104.578L112.395 104.89L112.337 105.069Z" fill="white"/>
<path d="M112.858 106.187L111.596 105.908C111.562 105.899 111.538 105.88 111.528 105.847C111.519 105.819 111.523 105.781 111.543 105.757L112.172 104.953L112.326 105.067L111.789 105.752L112.907 105.998L112.858 106.187Z" fill="white"/>
<path d="M112.501 107.248C112.472 107.248 112.443 107.234 112.424 107.215C112.405 107.191 112.395 107.153 112.41 107.125L112.816 106.014L113 106.075L112.647 107.04L113.812 106.884L113.836 107.073L112.516 107.253C112.506 107.248 112.501 107.248 112.501 107.248Z" fill="white"/>
<path d="M113.813 108.29C113.793 108.29 113.774 108.285 113.755 108.271C113.73 108.252 113.716 108.223 113.716 108.195L113.726 106.984H113.919L113.909 108.063L115.051 107.68L115.114 107.859L113.842 108.285C113.832 108.29 113.822 108.29 113.813 108.29Z" fill="white"/>
<path d="M115.264 109.08C115.249 109.08 115.23 109.075 115.215 109.066C115.191 109.052 115.172 109.028 115.167 109L114.944 107.855L115.133 107.822L115.331 108.858L116.468 108.451L116.536 108.631L115.293 109.075C115.288 109.08 115.273 109.08 115.264 109.08Z" fill="white"/>
<path d="M116.651 109.742C116.637 109.742 116.617 109.738 116.603 109.728C116.579 109.714 116.559 109.69 116.555 109.667L116.332 108.612L116.521 108.574L116.724 109.52L117.672 109.184L117.74 109.364L116.69 109.738C116.671 109.742 116.661 109.742 116.651 109.742Z" fill="white"/>
<path d="M118.092 110.333C118.077 110.333 118.068 110.328 118.053 110.323C118.029 110.314 118.01 110.29 118 110.267L117.671 109.24L117.855 109.184L118.15 110.106L118.909 109.737L118.996 109.907L118.135 110.323C118.121 110.328 118.106 110.333 118.092 110.333Z" fill="white"/>
<path d="M119.581 109.982C119.581 109.982 119.291 110.919 119.098 111.789C121.487 111.94 122.367 111.623 122.367 111.623C122.367 111.623 122.42 110.271 119.581 109.982Z" fill="#E6E5D9"/>
<path d="M105.966 112.062C105.966 112.062 113.168 113.211 116.094 113.344C119.116 113.481 121.994 113.467 122.274 113.249C122.555 113.027 122.337 111.679 122.337 111.679C122.337 111.679 116.108 111.528 111.054 110.87C108.655 110.558 105.57 109.996 105.57 109.996C105.57 109.996 105.275 111.428 105.966 112.062Z" fill="white"/>
<path d="M121.099 112.687C119.938 112.687 117.917 112.616 114.831 112.285C110.29 111.793 105.579 111.154 105.531 111.145L105.555 110.956C105.604 110.961 110.309 111.604 114.851 112.091C120.127 112.663 122.284 112.46 122.303 112.455L122.323 112.644C122.318 112.653 121.936 112.687 121.099 112.687Z" fill="#28362C"/>
<path d="M111.641 92.7219L107.066 91.4688C107.066 91.4688 107.264 96.7415 107.279 100.175L111.583 100.146L111.641 92.7219Z" fill="#28362C"/>
</svg>
