<svg width="276" height="200" viewBox="0 0 276 200" fill="none" xmlns="http://www.w3.org/2000/svg">
<path d="M50.8368 145.726H242.619V146.32C242.619 148.092 241.915 149.791 240.663 151.044C239.41 152.297 237.71 153.001 235.939 153.001H57.5707C55.7989 153.001 54.0997 152.297 52.8469 151.044C51.594 149.791 50.8902 148.092 50.8902 146.32V145.726H50.8368Z" stroke="#3B646E" stroke-width="0.334023" stroke-miterlimit="10"/>
<path d="M69.6021 44.336H227.528C228.611 44.3325 229.684 44.5428 230.686 44.9548C231.687 45.3668 232.598 45.9725 233.365 46.7371C234.132 47.5017 234.741 48.4102 235.156 49.4105C235.571 50.4108 235.785 51.4832 235.785 52.5663V145.725H61.4253V52.5663C61.4252 50.3927 62.285 48.3074 63.8169 46.7654C65.3489 45.2234 67.4286 44.3501 69.6021 44.336V44.336Z" stroke="#3B646E" stroke-width="0.334023" stroke-miterlimit="10"/>
<path d="M46.1738 144.389H237.95V144.983C237.95 145.861 237.777 146.729 237.441 147.54C237.105 148.35 236.613 149.087 235.993 149.707C235.373 150.327 234.636 150.819 233.826 151.155C233.015 151.491 232.146 151.664 231.269 151.664H52.901C52.0237 151.664 51.155 151.491 50.3445 151.155C49.534 150.819 48.7976 150.327 48.1772 149.707C47.5569 149.087 47.0648 148.35 46.7291 147.54C46.3934 146.729 46.2206 145.861 46.2206 144.983V144.389H46.1738Z" fill="#3B646E" fill-opacity="0.86"/>
<path d="M64.9325 43H222.858C223.941 42.9974 225.013 43.2083 226.014 43.6208C227.015 44.0332 227.925 44.639 228.691 45.4035C229.457 46.168 230.065 47.0762 230.48 48.0761C230.895 49.076 231.109 50.1478 231.109 51.2303V144.389H56.7489V51.2303C56.7489 49.0556 57.6096 46.9692 59.143 45.4271C60.6764 43.885 62.7578 43.0124 64.9325 43Z" fill="#3B646E"/>
<path d="M63.416 144.39L62.4874 51.3709C62.4839 51.0614 62.542 50.7542 62.6584 50.4674C62.7748 50.1806 62.9472 49.9198 63.1655 49.7003C63.3837 49.4807 63.6435 49.3069 63.9297 49.1889C64.2159 49.0708 64.5227 49.0109 64.8323 49.0127L223.159 49.3334C223.468 49.3342 223.774 49.3965 224.059 49.5164C224.345 49.6364 224.603 49.8118 224.82 50.0324C225.037 50.2529 225.208 50.5144 225.323 50.8015C225.438 51.0886 225.495 51.3957 225.49 51.705L224.268 144.122L63.416 144.39Z" fill="white"/>
<path d="M207.647 65.2868L159.327 64.9327V61.5391H207.974L207.647 65.2868Z" fill="#E6E5D8"/>
<path d="M154.243 113.606H74.4922L75.2538 60.5762L153.482 61.3377L154.243 113.606Z" fill="#E6E5D8"/>
<path d="M184.138 97.8268L160.316 97.4728V94.0791H184.279L184.138 97.8268Z" fill="#E6E5D8"/>
<path d="M181.099 105.976L160.356 106.077L160.316 102.229L180.765 101.941L181.099 105.976Z" fill="#E6E5D8"/>
<path d="M190.218 82.3818L160.356 82.4887L160.316 78.6408L189.877 78.3535L190.218 82.3818Z" fill="#E6E5D8"/>
<path d="M181.099 90.3045L160.316 89.9571V86.5635H181.239L181.099 90.3045Z" fill="#E6E5D8"/>
<path d="M163.449 123.179H121.883C118.489 123.179 115.737 125.93 115.737 129.325V129.331C115.737 132.726 118.489 135.477 121.883 135.477H163.449C166.843 135.477 169.595 132.726 169.595 129.331V129.325C169.595 125.93 166.843 123.179 163.449 123.179Z" fill="#F15845"/>
<path d="M120.427 126.813C120.667 127.334 120.574 127.668 120.981 128.116C121.389 128.563 121.649 128.817 121.89 128.83C122.13 128.844 123.754 128.724 124.682 128.757C125.611 128.79 126.373 128.817 126.446 129.251C126.52 129.686 126.513 129.919 125.831 129.993C125.15 130.066 123.72 129.919 123.46 129.993C123.199 130.066 122.277 129.946 122.685 130.394C123.092 130.841 124.021 131.937 124.268 131.924C124.716 131.924 126.359 131.924 126.94 131.924C127.936 131.877 128.838 130.24 128.798 129.425C128.757 128.61 128.023 127.174 127.094 127.053C126.165 126.933 123.46 126.84 122.872 126.82C122.284 126.8 120.427 126.813 120.427 126.813Z" fill="white"/>
<path d="M152.46 131.461V130.473C152.46 130.145 152.46 129.805 152.46 129.484C152.46 129.163 152.46 128.816 152.46 128.448L152.747 128.782L152.961 129.003C153.159 129.169 153.331 129.365 153.468 129.584C153.471 129.593 153.475 129.601 153.481 129.608C153.487 129.614 153.494 129.62 153.502 129.624C153.662 129.711 153.716 129.885 153.809 130.018C153.903 130.152 154.063 130.352 154.19 130.519C154.317 130.686 154.424 130.833 154.544 130.994C154.664 131.154 154.664 131.174 154.731 131.254C154.773 131.309 154.828 131.353 154.891 131.381C155.072 131.435 155.252 131.528 155.446 131.421C155.474 131.415 155.504 131.415 155.533 131.421C155.548 131.421 155.564 131.418 155.578 131.412C155.592 131.406 155.605 131.397 155.615 131.386C155.626 131.374 155.634 131.361 155.64 131.347C155.645 131.332 155.647 131.316 155.646 131.301C155.646 131.161 155.646 131.027 155.646 130.887C155.646 130.606 155.646 130.332 155.646 130.052C155.646 129.771 155.646 129.551 155.646 129.297C155.646 129.043 155.646 128.629 155.646 128.308C155.646 128.228 155.646 128.141 155.646 128.054C155.646 127.794 155.646 127.533 155.606 127.273C155.599 127.194 155.588 127.116 155.573 127.039L155.219 126.965C155.078 126.933 154.93 126.947 154.798 127.005C154.768 127.013 154.742 127.032 154.724 127.058C154.707 127.084 154.7 127.115 154.704 127.146C154.704 127.246 154.704 127.339 154.704 127.44C154.704 127.54 154.704 127.774 154.704 127.934C154.704 128.094 154.704 128.215 154.704 128.355L154.764 129.023C154.764 129.123 154.764 129.223 154.764 129.324C154.764 129.544 154.764 129.758 154.764 129.992C154.771 130.036 154.771 130.081 154.764 130.125C154.764 130.092 154.711 130.085 154.698 130.065L154.19 129.451C154.096 129.337 153.99 129.237 153.903 129.116C153.729 128.889 153.542 128.676 153.348 128.448C153.155 128.221 153.108 128.128 152.967 127.994C152.776 127.791 152.607 127.567 152.466 127.326C152.42 127.222 152.34 127.137 152.24 127.082C152.14 127.028 152.025 127.008 151.912 127.026C151.812 127.039 151.711 127.039 151.611 127.026C151.458 127.026 151.391 127.026 151.344 127.186C151.321 127.365 151.321 127.547 151.344 127.727C151.344 128.034 151.378 128.342 151.384 128.642C151.391 128.943 151.384 129.056 151.384 129.263C151.384 129.304 151.384 129.337 151.384 129.377C151.381 129.415 151.381 129.453 151.384 129.491C151.384 129.811 151.384 130.159 151.384 130.459C151.414 130.79 151.428 131.122 151.424 131.455C151.424 131.568 151.484 131.615 151.598 131.608H151.905C152.098 131.598 152.287 131.548 152.46 131.461Z" fill="white"/>
<path d="M135.558 127.267C135.381 127.163 135.193 127.081 134.997 127.02C134.663 126.936 134.319 126.896 133.975 126.9C133.873 126.905 133.773 126.93 133.681 126.973H133.614C133.37 127.001 133.131 127.066 132.906 127.167C132.665 127.308 132.441 127.476 132.238 127.668C132.042 127.863 131.88 128.088 131.757 128.336C131.713 128.415 131.682 128.501 131.664 128.59C131.602 128.791 131.579 129.002 131.597 129.211C131.597 129.472 131.677 129.726 131.724 129.979C131.724 129.979 131.757 130.026 131.77 130.053L131.851 130.22C131.988 130.503 132.187 130.751 132.432 130.948C132.649 131.113 132.89 131.244 133.147 131.336C133.465 131.474 133.808 131.544 134.155 131.543H134.383C134.765 131.491 135.134 131.361 135.465 131.162C135.536 131.125 135.601 131.078 135.659 131.022C136.003 130.681 136.271 130.271 136.447 129.819C136.562 129.547 136.606 129.251 136.574 128.957C136.52 128.49 136.327 128.05 136.019 127.695C135.882 127.536 135.727 127.393 135.558 127.267ZM135.732 129.031C135.717 129.341 135.639 129.646 135.505 129.926C135.471 129.987 135.428 130.044 135.378 130.093L134.91 130.541C134.91 130.541 134.91 130.541 134.87 130.541C134.552 130.7 134.197 130.771 133.841 130.748C133.668 130.723 133.501 130.662 133.352 130.57C133.202 130.479 133.073 130.357 132.973 130.213C132.718 129.88 132.586 129.47 132.599 129.051C132.61 128.765 132.688 128.486 132.826 128.236C132.901 128.096 133.006 127.975 133.133 127.88C133.26 127.786 133.406 127.72 133.561 127.688L133.968 127.614C134.156 127.605 134.343 127.637 134.516 127.708C134.755 127.764 134.981 127.864 135.184 128.002C135.325 128.089 135.445 128.205 135.537 128.342C135.629 128.479 135.691 128.634 135.719 128.797C135.739 128.864 135.732 128.964 135.732 129.031Z" fill="white"/>
<path d="M140.822 131.35C141.124 131.348 141.416 131.244 141.651 131.056L141.744 130.996V131.183C141.744 131.343 141.778 131.383 141.938 131.39C142.058 131.4 142.179 131.4 142.299 131.39C142.506 131.39 142.559 131.29 142.559 131.069C142.559 130.642 142.559 130.221 142.559 129.793C142.559 129.245 142.519 128.698 142.513 128.143C142.513 127.716 142.513 127.281 142.452 126.847C142.452 126.647 142.412 126.613 142.225 126.62C142.038 126.627 141.978 126.62 141.858 126.62C141.738 126.62 141.678 126.66 141.671 126.814C141.671 127.134 141.671 127.482 141.671 127.776V128.143H141.591C141.279 128.011 140.931 127.994 140.609 128.096C140.479 128.141 140.354 128.197 140.235 128.263C140.107 128.333 139.99 128.421 139.887 128.524C139.631 128.795 139.477 129.147 139.453 129.519C139.399 129.994 139.528 130.472 139.814 130.855C139.936 131.006 140.089 131.128 140.264 131.214C140.438 131.299 140.628 131.345 140.822 131.35ZM140.328 129.346C140.354 129.228 140.408 129.118 140.486 129.026C140.564 128.934 140.663 128.862 140.776 128.818C140.851 128.788 140.93 128.766 141.009 128.751C141.232 128.785 141.444 128.867 141.631 128.991C141.672 129.043 141.695 129.106 141.698 129.172C141.698 129.432 141.751 129.686 141.764 129.947C141.769 130.005 141.755 130.064 141.724 130.114C141.607 130.311 141.432 130.467 141.223 130.561C141.111 130.603 140.99 130.614 140.873 130.592C140.755 130.571 140.646 130.519 140.555 130.441C140.208 130.154 140.235 129.76 140.328 129.339V129.346Z" fill="white"/>
<path d="M164.237 128.51H163.77C163.67 128.51 163.623 128.51 163.589 128.643C163.556 128.777 163.536 128.85 163.503 128.951C163.369 129.305 163.229 129.659 163.095 130.019C163.078 130.061 163.058 130.101 163.035 130.14C162.982 129.999 162.928 129.879 162.881 129.752C162.774 129.438 162.674 129.118 162.567 128.804C162.545 128.721 162.516 128.641 162.48 128.563C162.48 128.496 162.414 128.436 162.334 128.443C162.253 128.45 162.026 128.49 161.873 128.503C161.836 128.505 161.801 128.518 161.772 128.54C161.743 128.563 161.722 128.595 161.712 128.63C161.672 128.737 161.619 128.844 161.579 128.957C161.492 129.198 161.412 129.438 161.325 129.685L161.124 130.267C161.064 130.14 161.017 130.046 160.977 129.946C160.87 129.672 160.77 129.405 160.67 129.131C160.61 128.964 160.557 128.79 160.496 128.617C160.496 128.563 160.45 128.51 160.376 128.516C160.196 128.516 160.009 128.516 159.822 128.516C159.635 128.516 159.715 128.556 159.755 128.657C159.795 128.757 159.882 129.004 159.935 129.184C159.989 129.365 160.002 129.485 160.042 129.632C160.082 129.779 160.182 130.066 160.249 130.3C160.316 130.534 160.316 130.541 160.356 130.661C160.396 130.781 160.523 131.068 160.61 131.275C160.623 131.331 160.656 131.38 160.703 131.412C160.75 131.444 160.807 131.457 160.864 131.449C160.971 131.456 161.078 131.456 161.184 131.449C161.445 131.449 161.445 131.449 161.532 131.182C161.659 130.808 161.779 130.434 161.906 130.066L162.046 129.612H162.086C162.126 129.732 162.16 129.859 162.207 129.979C162.36 130.407 162.527 130.834 162.661 131.275C162.677 131.353 162.72 131.421 162.783 131.469C162.845 131.517 162.923 131.541 163.002 131.536H163.142C163.182 131.54 163.223 131.53 163.256 131.506C163.289 131.483 163.313 131.448 163.322 131.409C163.322 131.336 163.369 131.255 163.396 131.182L163.797 130.04C163.908 129.673 164.046 129.316 164.211 128.971C164.255 128.88 164.293 128.786 164.324 128.69C164.364 128.543 164.338 128.51 164.237 128.51Z" fill="white"/>
<path d="M144.082 131.042C144.177 131.092 144.278 131.128 144.383 131.149C144.644 131.168 144.907 131.141 145.158 131.069C145.426 130.978 145.672 130.833 145.88 130.641C145.906 130.611 145.921 130.571 145.921 130.531C145.921 130.49 145.906 130.451 145.88 130.421C145.837 130.348 145.791 130.279 145.739 130.213C145.708 130.176 145.666 130.148 145.619 130.133C145.566 130.123 145.512 130.125 145.46 130.139C145.408 130.153 145.359 130.178 145.318 130.213C145.14 130.347 144.92 130.413 144.697 130.4C144.435 130.343 144.2 130.2 144.029 129.993C144 129.953 143.979 129.908 143.969 129.859C144.002 129.859 144.016 129.826 144.029 129.826C144.437 129.826 144.844 129.786 145.252 129.719H145.352H146.02C146.12 129.719 146.16 129.646 146.133 129.539C146.107 129.432 146.133 129.452 146.133 129.405C146.129 129.228 146.084 129.054 146 128.897C145.882 128.687 145.717 128.507 145.519 128.37C145.389 128.293 145.253 128.228 145.111 128.176C144.866 128.099 144.602 128.099 144.356 128.176C144.152 128.201 143.96 128.29 143.809 128.43C143.76 128.507 143.704 128.578 143.642 128.644C143.548 128.726 143.47 128.826 143.414 128.937C143.341 129.048 143.281 129.167 143.234 129.292C143.221 129.402 143.221 129.515 143.234 129.626C143.238 129.78 143.263 129.932 143.308 130.08C143.345 130.292 143.436 130.492 143.572 130.66C143.707 130.828 143.883 130.96 144.082 131.042ZM144.343 128.951C144.414 128.888 144.497 128.84 144.588 128.812C144.678 128.784 144.774 128.775 144.868 128.786C144.962 128.797 145.053 128.829 145.134 128.878C145.215 128.927 145.285 128.993 145.338 129.071L144.904 129.111L144.417 129.158C144.35 129.158 144.249 129.205 144.223 129.111C144.196 129.018 144.283 128.991 144.343 128.951Z" fill="white"/>
<path d="M157.109 128.43C156.852 128.565 156.636 128.765 156.481 129.011C156.344 129.238 156.239 129.483 156.167 129.739C156.127 129.856 156.127 129.983 156.167 130.1C156.214 130.22 156.248 130.354 156.301 130.467C156.363 130.651 156.461 130.822 156.588 130.968C156.746 131.132 156.937 131.261 157.147 131.347C157.357 131.433 157.584 131.475 157.811 131.469C158.001 131.483 158.191 131.441 158.359 131.349C158.778 131.146 159.099 130.786 159.254 130.347C159.355 130.145 159.402 129.921 159.393 129.695C159.384 129.47 159.317 129.251 159.2 129.058C159.039 128.808 158.822 128.6 158.566 128.45C158.31 128.299 158.01 128.243 157.717 128.289C157.508 128.299 157.302 128.346 157.109 128.43ZM157.871 128.877C158.058 128.877 158.258 128.877 158.405 129.064C158.579 129.228 158.694 129.444 158.733 129.679C158.761 129.857 158.736 130.039 158.662 130.203C158.587 130.367 158.465 130.506 158.312 130.601C158.206 130.673 158.088 130.727 157.964 130.761C157.821 130.804 157.668 130.798 157.528 130.744C157.389 130.689 157.272 130.589 157.196 130.461C157.06 130.291 156.993 130.076 157.009 129.859C157.008 129.587 157.113 129.326 157.303 129.131C157.359 129.072 157.427 129.026 157.504 128.998C157.597 128.957 157.704 128.931 157.804 128.891C157.904 128.851 157.851 128.864 157.871 128.864V128.877Z" fill="white"/>
<path d="M137.308 130.534C137.308 130.708 137.308 130.882 137.308 131.062C137.308 131.243 137.349 131.196 137.429 131.196H138.037C138.037 131.062 138.037 130.962 138.037 130.862C138.03 130.737 138.03 130.612 138.037 130.488C138.037 130.234 138.037 129.987 138.037 129.733C138.037 129.592 138.037 129.452 138.037 129.305C138.039 129.249 138.063 129.197 138.103 129.158C138.176 129.083 138.263 129.023 138.359 128.982C138.456 128.942 138.56 128.922 138.665 128.924H138.898C139.005 128.924 139.032 128.924 139.032 128.797C139.032 128.671 139.032 128.497 139.032 128.35C139.032 128.203 138.979 128.19 138.858 128.183H138.645C138.543 128.171 138.441 128.19 138.351 128.236C138.243 128.285 138.131 128.326 138.017 128.357C138.014 128.317 138.014 128.276 138.017 128.236C138.015 128.219 138.01 128.202 138.001 128.187C137.993 128.172 137.982 128.158 137.968 128.148C137.954 128.137 137.938 128.129 137.921 128.125C137.904 128.121 137.887 128.12 137.87 128.123L137.308 128.196C137.303 128.247 137.303 128.299 137.308 128.35C137.308 128.557 137.308 128.757 137.308 128.965C137.308 129.486 137.308 130.007 137.308 130.534Z" fill="white"/>
<path d="M146.995 130.533C146.995 130.707 146.995 130.881 146.995 131.061C146.995 131.242 147.029 131.195 147.115 131.195H147.723C147.723 131.061 147.723 130.961 147.723 130.861C147.723 130.761 147.723 130.607 147.723 130.487C147.723 130.233 147.723 129.986 147.723 129.732C147.723 129.592 147.723 129.451 147.723 129.304C147.726 129.25 147.747 129.198 147.783 129.157C147.856 129.082 147.943 129.023 148.04 128.983C148.136 128.942 148.24 128.922 148.345 128.923H148.585C148.692 128.923 148.719 128.923 148.719 128.797C148.719 128.67 148.719 128.496 148.719 128.349C148.719 128.202 148.665 128.189 148.545 128.182H148.378C148.277 128.169 148.174 128.188 148.084 128.235C147.974 128.285 147.86 128.325 147.743 128.356C147.747 128.316 147.747 128.275 147.743 128.235C147.743 128.218 147.738 128.202 147.731 128.186C147.723 128.171 147.712 128.158 147.699 128.147C147.686 128.136 147.67 128.128 147.654 128.124C147.637 128.12 147.62 128.119 147.603 128.122L147.022 128.175C147.022 128.235 147.022 128.282 147.022 128.329C147.022 128.536 147.022 128.736 147.022 128.944C146.988 129.485 146.988 130.006 146.995 130.533Z" fill="white"/>
<g style="mix-blend-mode:multiply" opacity="0.49">
<path d="M145.846 144.389H231.089V51.2303C231.09 50.1493 230.877 49.0786 230.464 48.0797C230.051 47.0807 229.445 46.1731 228.68 45.4086C227.916 44.6442 227.008 44.038 226.009 43.6247C225.01 43.2114 223.939 42.9991 222.858 43H205.222L145.846 144.389Z" fill="#E6E5D8"/>
</g>
<g opacity="0.86">
<g opacity="0.86">
<path opacity="0.86" d="M71.517 74.0007L72.0055 153.349C71.9334 158.156 68.8789 160.718 65.8078 161.023L34.2847 161.139C30.1343 161.209 26.629 158.868 26.5981 154.706L26.0004 74.1763C25.9592 70.043 29.155 66.9296 33.278 66.9267L64.5403 66.7814C68.7227 66.7551 71.5044 69.8067 71.517 74.0007Z" fill="#2D656F"/>
</g>
</g>
<path d="M60.3367 69.537C60.3367 69.537 60.057 73.0171 57.1924 73.2116C55.5055 73.3265 46.6847 73.2339 44.7422 73.2533C42.7996 73.2722 39.1176 73.394 38.314 72.5755C37.2232 71.4652 38.0451 70.1193 37.3519 69.9088C36.7747 69.7338 31.7056 69.4409 30.3077 70.6296C28.845 71.8737 28.5007 73.4318 28.5819 76.1791C28.6637 78.9631 29.0647 142.94 29.262 146.518C29.4594 150.096 29.2037 153.417 29.393 154.273C29.6567 155.463 30.4163 157.734 33.4954 158.029C36.5745 158.324 62.7923 157.716 64.7314 157.834C67.2865 157.989 69.7662 155.849 69.5803 153.41C69.3944 150.972 69.177 77.3712 69.1564 75.2559C69.1352 73.1406 68.8372 70.371 65.4321 69.8619C62.3519 69.402 60.3367 69.537 60.3367 69.537Z" fill="white"/>
<path d="M31.9996 138.367C31.9538 139.16 31.8778 141.435 31.8984 142.318C31.9184 143.201 32.396 144.399 33.9519 144.408C40.3297 144.443 58.2957 144.052 65.0957 143.966C66.365 143.95 66.7614 142.849 66.7734 142.008C66.79 140.9 66.7557 138.413 66.5629 137.491C66.3415 136.43 65.4109 136.336 64.4608 136.332C58.1859 136.305 41.3948 136.395 34.3585 136.619C33.4279 136.649 32.0877 136.828 31.9996 138.367Z" fill="#FF0000"/>
<path d="M41.3218 139.982C41.391 139.798 41.4699 139.618 41.5483 139.437C41.6038 139.31 41.6101 139.163 41.7079 139.054C41.7267 139.034 41.7422 139.009 41.7679 138.977C41.8938 139.23 42.0591 139.444 42.1592 139.702C42.2553 139.948 42.4217 140.162 42.5081 140.425C42.0534 140.423 41.6295 140.422 41.1862 140.421C41.2337 140.265 41.2703 140.12 41.3218 139.982ZM40.4426 142.281C40.5593 142.008 40.6731 141.733 40.7858 141.458C40.8224 141.369 40.8521 141.277 40.887 141.181C41.2411 141.184 41.5803 141.183 41.9189 141.192C42.2404 141.202 42.5579 141.277 42.881 141.278C42.944 141.278 42.9943 141.308 43.0246 141.379C43.1036 141.566 43.1922 141.747 43.278 141.93C43.3346 142.051 43.3867 142.175 43.4542 142.289C43.4799 142.333 43.5394 142.376 43.588 142.383C43.7682 142.409 43.9495 142.422 44.1309 142.435C44.1612 142.437 44.1938 142.412 44.2579 142.386C44.223 142.254 44.2007 142.129 44.156 142.011C44.0159 141.642 43.8311 141.294 43.6916 140.923C43.5068 140.435 43.2975 139.954 43.0641 139.489C42.8393 139.039 42.6334 138.576 42.3582 138.154C42.3273 138.106 42.3085 138.05 42.289 137.995C42.2513 137.888 42.1718 137.844 42.0682 137.834C42.0116 137.828 41.951 137.837 41.8989 137.819C41.7422 137.763 41.5883 137.775 41.4293 137.803C41.3647 137.815 41.3269 137.841 41.3006 137.898C41.252 138.003 41.2022 138.106 41.1519 138.21C40.9877 138.551 40.815 138.887 40.6617 139.233C40.5633 139.453 40.4946 139.688 40.4123 139.916C40.4008 139.947 40.3842 139.977 40.3711 140.007C40.2687 140.256 40.1629 140.504 40.0639 140.755C39.9753 140.979 39.9038 141.21 39.8088 141.431C39.7093 141.665 39.5903 141.889 39.4828 142.119C39.4422 142.205 39.4673 142.273 39.5497 142.317C39.5949 142.341 39.6412 142.373 39.6893 142.38C39.8534 142.405 40.0176 142.425 40.1829 142.438C40.2996 142.447 40.394 142.395 40.4426 142.281Z" fill="white"/>
<path d="M56.2681 140.131C56.3659 140.366 56.4008 140.596 56.343 140.846C56.2996 141.033 56.1897 141.17 56.0559 141.297C55.9592 141.388 55.8425 141.395 55.7401 141.393C55.441 141.403 55.211 141.32 55.0091 141.104C54.8907 140.977 54.853 140.856 54.8484 140.699C54.8427 140.524 54.8038 140.351 54.8392 140.173C54.8621 140.057 54.893 139.955 55.0017 139.891C55.0795 139.845 55.159 139.8 55.231 139.746C55.5331 139.519 56.0994 139.727 56.2681 140.131ZM54.9599 139.175C54.9182 139.201 54.8741 139.222 54.8226 139.251C54.7992 139.136 54.8118 139.025 54.7311 138.973C54.5996 138.98 54.4926 138.988 54.3856 138.992C54.2626 138.996 54.1391 138.997 54.0287 139C53.9257 139.149 53.9732 139.297 53.9658 139.434C53.9555 139.62 53.9887 139.809 53.9955 139.996C54.003 140.189 53.9972 140.382 54.0041 140.575C54.0127 140.82 54.035 141.065 54.0396 141.311C54.0459 141.691 54.0384 142.073 54.0441 142.453C54.0476 142.646 54.0602 142.84 54.0819 143.032C54.0973 143.166 54.1534 143.203 54.2895 143.199C54.432 143.196 54.575 143.191 54.7174 143.183C54.8455 143.178 54.8838 143.131 54.8804 142.997C54.8753 142.825 54.8701 142.654 54.8673 142.483C54.8638 142.238 54.8621 141.994 54.8604 141.75C55.0503 141.887 55.2316 141.975 55.4375 142.036C55.7762 142.139 56.0788 142.079 56.3676 141.9C56.4591 141.844 56.5421 141.772 56.621 141.698C56.7572 141.569 56.8664 141.422 56.9345 141.241C57.0065 141.05 57.0128 140.853 57.0334 140.654C57.0557 140.44 57.0443 140.238 56.9882 140.03C56.8996 139.705 56.7183 139.441 56.494 139.203C56.3865 139.09 56.2647 139.003 56.0896 138.977C55.6858 138.917 55.3106 138.959 54.9599 139.175Z" fill="white"/>
<path d="M51.6278 139.76C51.8017 139.621 52.003 139.569 52.2175 139.605C52.3691 139.631 52.4932 139.722 52.6288 139.871C52.4578 139.887 52.3256 139.899 52.1941 139.914C52.0316 139.931 51.8686 139.955 51.7062 139.97C51.6364 139.977 51.5408 140.014 51.5088 139.926C51.4791 139.841 51.5717 139.804 51.6278 139.76ZM51.3915 141.857C51.4899 141.897 51.5895 141.957 51.6901 141.961C51.9504 141.971 52.2089 141.956 52.4635 141.873C52.7426 141.782 52.972 141.626 53.1859 141.436C53.2471 141.381 53.2626 141.293 53.2174 141.221C53.1728 141.148 53.127 141.076 53.0727 141.011C53.0429 140.976 52.9983 140.944 52.9543 140.933C52.841 140.904 52.7472 140.957 52.654 141.018C52.4646 141.14 52.2616 141.234 52.0293 141.206C51.7479 141.174 51.5477 140.993 51.3578 140.804C51.3281 140.774 51.3178 140.725 51.2943 140.676C51.3298 140.654 51.3429 140.639 51.3572 140.638C51.7645 140.606 52.1735 140.59 52.5767 140.521C52.6099 140.515 52.6454 140.52 52.6791 140.519C52.9068 140.508 53.1339 140.5 53.361 140.484C53.4651 140.477 53.5 140.412 53.4759 140.307C53.4662 140.262 53.4645 140.217 53.4576 140.173C53.4285 140 53.4307 139.817 53.3209 139.668C53.1779 139.475 53.0584 139.259 52.8347 139.141C52.7003 139.072 52.5659 138.997 52.4229 138.95C52.1735 138.87 51.9126 138.885 51.6661 138.954C51.4751 139.007 51.2634 139.042 51.125 139.213C51.0684 139.283 51.0243 139.367 50.9574 139.424C50.8584 139.507 50.7961 139.613 50.7343 139.72C50.6674 139.836 50.5925 139.954 50.5553 140.081C50.5244 140.185 50.5461 140.304 50.5398 140.416C50.5301 140.574 50.5867 140.718 50.6199 140.868C50.72 141.324 50.9431 141.677 51.3915 141.857Z" fill="white"/>
<path d="M58.8822 139.478C58.9835 139.482 59.0847 139.496 59.2226 139.51C59.2466 139.297 59.2992 139.099 59.2775 138.894C59.2695 138.814 59.2197 138.755 59.1168 138.75C58.9503 138.741 58.7839 138.715 58.6094 138.696C58.6065 138.662 58.5997 138.629 58.6014 138.596C58.6083 138.431 58.6186 138.266 58.6254 138.101C58.6351 137.869 58.6083 137.84 58.3869 137.836C58.2897 137.835 58.1924 137.832 58.0952 137.836C58.0151 137.839 57.935 137.844 57.8572 137.86C57.7565 137.882 57.6742 137.989 57.6747 138.082C57.6765 138.285 57.6788 138.489 57.6799 138.71C57.5724 138.731 57.4683 138.751 57.3653 138.774C57.2463 138.801 57.2194 138.832 57.2206 138.947C57.2223 139.067 57.228 139.186 57.2354 139.306C57.2406 139.391 57.2869 139.442 57.3739 139.449C57.454 139.456 57.5346 139.455 57.6135 139.463C57.6673 139.468 57.7205 139.483 57.7806 139.495C57.7834 139.816 57.784 140.121 57.7903 140.427C57.792 140.506 57.8263 140.587 57.8172 140.664C57.7886 140.883 57.828 141.091 57.8973 141.296C57.9871 141.558 58.1369 141.761 58.4384 141.801C58.4893 141.808 58.5373 141.827 58.5877 141.837C58.8062 141.881 59.0138 141.841 59.2169 141.766C59.2146 141.549 59.2129 141.348 59.2106 141.138C59.051 141.119 58.9114 141.101 58.7982 141.087C58.65 140.938 58.6363 140.769 58.6426 140.595C58.6454 140.511 58.6437 140.426 58.6363 140.342C58.6208 140.152 58.5974 139.962 58.5825 139.772C58.5751 139.679 58.5797 139.584 58.5785 139.48C58.6895 139.478 58.7861 139.473 58.8822 139.478Z" fill="white"/>
<path d="M47.8152 141.575C47.8318 141.602 47.865 141.621 47.8918 141.641C48.028 141.742 48.1595 141.852 48.3025 141.942C48.5565 142.103 48.8368 142.179 49.1337 142.099C49.5392 141.991 49.9127 141.817 50.2085 141.503C50.2748 141.432 50.2834 141.347 50.2096 141.283C50.0981 141.187 49.9814 141.097 49.8498 140.991C49.7966 141.031 49.7434 141.058 49.7085 141.1C49.5861 141.25 49.4219 141.335 49.2555 141.423C49.1548 141.476 49.0513 141.487 48.9586 141.453C48.8116 141.4 48.6503 141.356 48.5462 141.227C48.4507 141.109 48.3363 140.99 48.2917 140.851C48.2093 140.592 48.2162 140.327 48.3632 140.077C48.5056 139.835 48.6795 139.652 48.9815 139.629C49.1903 139.613 49.3733 139.673 49.5381 139.792C49.6342 139.861 49.7194 139.944 49.8121 140.018C49.8876 140.078 49.9236 140.072 49.9808 139.995C50.042 139.914 50.0986 139.829 50.1621 139.749C50.3017 139.574 50.3005 139.527 50.1415 139.367C50.1261 139.351 50.1061 139.338 50.0912 139.321C50.0191 139.236 49.9041 139.223 49.8189 139.162C49.6656 139.052 49.494 138.979 49.3144 138.937C49.1743 138.905 49.0181 138.879 48.8814 138.908C48.6612 138.955 48.4495 139.046 48.2368 139.125C48.1824 139.145 48.1304 139.186 48.0892 139.228C47.8901 139.433 47.7185 139.657 47.6047 139.923C47.4903 140.189 47.4257 140.462 47.4531 140.753C47.4829 141.067 47.6602 141.316 47.8152 141.575Z" fill="white"/>
<path d="M44.5177 141.631C44.5343 141.659 44.5669 141.678 44.5943 141.698C44.7305 141.799 44.862 141.908 45.005 141.999C45.259 142.159 45.5387 142.236 45.8361 142.156C46.2417 142.047 46.6152 141.873 46.9104 141.56C46.9773 141.488 46.9859 141.404 46.9121 141.34C46.8005 141.243 46.6838 141.154 46.5523 141.047C46.4991 141.087 46.4459 141.115 46.411 141.157C46.288 141.306 46.1244 141.392 45.958 141.48C45.8573 141.533 45.7538 141.544 45.6611 141.51C45.5141 141.456 45.3522 141.413 45.2487 141.284C45.1532 141.166 45.0388 141.046 44.9941 140.907C44.9118 140.649 44.9186 140.384 45.0656 140.134C45.2081 139.891 45.382 139.709 45.6834 139.686C45.8922 139.67 46.0752 139.729 46.2405 139.848C46.3361 139.918 46.4219 140.001 46.5145 140.075C46.5895 140.135 46.6261 140.129 46.6833 140.052C46.7445 139.971 46.8011 139.886 46.8646 139.806C47.0042 139.631 47.003 139.584 46.844 139.424C46.828 139.408 46.8085 139.395 46.7937 139.378C46.7216 139.292 46.6066 139.28 46.5214 139.219C46.3681 139.108 46.1965 139.036 46.0169 138.994C45.8767 138.961 45.7206 138.936 45.5839 138.965C45.3637 139.012 45.152 139.102 44.9392 139.182C44.8849 139.202 44.8328 139.243 44.7917 139.285C44.5926 139.49 44.421 139.713 44.3066 139.979C44.1928 140.246 44.1276 140.519 44.1556 140.81C44.1853 141.123 44.3627 141.373 44.5177 141.631Z" fill="white"/>
<path d="M40.9794 155.553L56.4052 155.601L56.4045 155.834L40.9788 155.787L40.9794 155.553Z" fill="#2D656F"/>
<path d="M55.4329 70.6372C55.8495 70.6285 55.7048 71.1709 55.3906 71.241C55.0758 71.3118 44.1445 71.2173 43.7677 71.1943C43.3904 71.1701 43.3224 70.8072 43.775 70.6787C44.145 70.5744 54.4835 70.6561 55.4329 70.6372Z" fill="#255B61"/>
<path d="M41.0508 70.5216C41.2143 70.6251 41.2092 70.9815 41.0759 71.1216C40.9426 71.2617 40.5502 71.2308 40.481 70.9254C40.4044 70.5851 40.7939 70.3591 41.0508 70.5216Z" fill="#255B61"/>
<path d="M45.5161 76.8429C45.6923 77.229 45.6213 77.4802 45.9245 77.8079C46.2277 78.1351 46.4096 78.3319 46.5972 78.3382C46.7848 78.345 47.9786 78.2609 48.6667 78.285C49.3554 78.3096 49.9188 78.3302 49.9714 78.6482C50.024 78.9668 50.0183 79.1567 49.5155 79.2025C49.0127 79.2476 47.9505 79.1464 47.7606 79.203C47.5707 79.2597 46.8843 79.1716 47.1875 79.4993C47.4906 79.8265 48.1605 80.645 48.3584 80.633C48.6878 80.6136 49.9056 80.6473 50.3484 80.625C51.0857 80.5878 51.7504 79.3769 51.7223 78.774C51.6943 78.174 51.148 77.1066 50.4616 77.0191C49.7746 76.931 47.7715 76.8601 47.3333 76.8441C46.8952 76.8286 45.5161 76.8429 45.5161 76.8429Z" fill="#FF1800"/>
<path d="M39.9866 106.426C39.8043 106.484 33.971 98.747 34.3669 94.9411C34.7147 91.5942 38.0628 89.6545 41.0568 90.4961C43.8848 91.2911 45.345 93.9938 44.9253 96.2979C44.2469 100.022 40.1688 106.368 39.9866 106.426Z" fill="#FF1800"/>
<path d="M43.2601 95.5923C43.3138 96.8226 42.9815 97.6149 42.2419 98.4414C41.6596 99.0918 40.7959 99.4253 39.9436 99.4241C38.3929 99.423 37.8861 99.1953 36.8096 98.0393C36.2559 97.4456 35.9327 95.6352 36.1558 94.8321C36.4452 93.7882 36.7684 93.0457 37.6378 92.476C39.4299 91.3022 41.8529 91.6603 42.7893 93.644C43.0856 94.2721 43.2955 94.935 43.2601 95.5923Z" fill="white"/>
<path d="M60.3972 114.608C52.8922 111.62 40.012 106.658 39.8829 106.608L40.0034 106.282C40.1325 106.332 53.0141 111.295 60.5213 114.282L60.3972 114.608Z" fill="#666666"/>
<path d="M60.492 114.805C60.3103 114.863 54.477 107.126 54.8723 103.32C55.2201 99.9731 58.5688 98.0334 61.5622 98.8751C64.3901 99.67 65.8504 102.373 65.4307 104.677C64.7523 108.401 60.6742 114.747 60.492 114.805Z" fill="#FF1800"/>
<path d="M63.7654 103.916C63.8198 105.146 63.4874 105.939 62.7478 106.765C62.1655 107.415 61.3012 107.748 60.449 107.748C58.8983 107.746 58.392 107.519 57.3155 106.363C56.7618 105.769 56.4381 103.958 56.6612 103.155C56.9512 102.111 57.2743 101.369 58.1438 100.799C59.9359 99.6255 62.3583 99.9836 63.2947 101.967C63.591 102.596 63.8009 103.258 63.7654 103.916Z" fill="white"/>
<path d="M47.7375 125.194C47.5069 125.056 47.281 124.911 47.0505 124.773C46.9864 124.734 46.9155 124.707 46.8451 124.678C46.745 124.638 46.6415 124.603 46.5414 124.561C46.185 124.412 45.8293 124.261 45.4735 124.109C45.3322 124.049 45.184 123.997 45.0565 123.914C44.8769 123.799 44.7522 123.638 44.7201 123.411C44.6315 122.778 45.2841 122.151 45.9013 122.306C46.4058 122.434 46.8737 122.64 47.2198 123.061C47.3719 123.247 47.4618 123.227 47.607 123.033C47.7123 122.892 47.8078 122.74 47.9331 122.62C48.179 122.385 48.2322 122.181 48.0069 121.953C47.6088 121.548 47.2192 121.118 46.6306 120.98C46.5036 120.95 46.4396 120.887 46.4453 120.753C46.4522 120.6 46.4493 120.446 46.4556 120.292C46.4699 119.972 46.3235 119.797 46.0043 119.768C45.851 119.754 45.6965 119.756 45.5438 119.74C45.3064 119.715 45.1406 119.829 45.1131 120.07C45.0897 120.274 45.0599 120.485 45.0891 120.685C45.124 120.923 45.0256 121.015 44.826 121.102C44.5531 121.221 44.282 121.339 44.0686 121.578C43.8095 121.869 43.5527 122.14 43.3714 122.502C43.1042 123.038 43.0527 123.583 43.0991 124.154C43.1094 124.288 43.1569 124.436 43.2352 124.543C43.3908 124.754 43.5847 124.933 43.8415 125.029C44.0057 125.09 44.1653 125.162 44.3249 125.233C44.7018 125.403 45.0702 125.593 45.4546 125.743C46.0512 125.977 46.5471 126.337 46.9252 126.85C47.1746 127.188 47.0345 127.888 46.6701 128.028C46.1833 128.214 45.6777 128.37 45.1457 128.18C44.8734 128.083 44.6509 127.867 44.342 127.855C44.2963 127.853 44.254 127.795 44.2076 127.766C43.9908 127.63 43.7729 127.497 43.5653 127.368C43.3359 127.661 43.1265 127.925 42.92 128.192C42.8743 128.252 42.8331 128.316 42.7988 128.383C42.6987 128.582 42.713 128.627 42.8897 128.754C43.0493 128.868 43.1969 129 43.3645 129.099C43.5967 129.235 43.7878 129.441 44.0641 129.504C44.3152 129.56 44.5646 129.623 44.8134 129.689C44.9158 129.716 45.0141 129.758 45.1348 129.799C45.1303 130.122 45.1263 130.425 45.1223 130.757C45.2138 130.951 45.4088 130.975 45.6313 130.949C45.7263 130.937 45.8247 130.957 45.9213 130.959C46.0609 130.963 46.1999 130.963 46.3629 130.966C46.4287 130.543 46.4905 130.144 46.5574 129.715C46.7244 129.662 46.9183 129.62 47.094 129.54C47.7232 129.249 48.2465 128.824 48.6086 128.229C49.0022 127.581 49.1063 126.897 48.7522 126.195C48.5285 125.752 48.1573 125.445 47.7375 125.194Z" fill="#2D656F"/>
<path d="M55.1953 125.026C54.9648 124.888 54.7389 124.743 54.5083 124.605C54.4443 124.566 54.3728 124.539 54.303 124.51C54.2023 124.47 54.0994 124.435 53.9993 124.393C53.6429 124.244 53.2871 124.093 52.9313 123.941C52.79 123.881 52.6419 123.829 52.5143 123.746C52.3347 123.631 52.21 123.47 52.178 123.243C52.0893 122.61 52.742 121.983 53.3592 122.138C53.8637 122.266 54.3316 122.472 54.6777 122.893C54.8298 123.079 54.9196 123.059 55.0649 122.865C55.1702 122.724 55.2657 122.572 55.3909 122.452C55.6369 122.217 55.6901 122.014 55.4647 121.784C55.0666 121.38 54.6765 120.95 54.0885 120.812C53.9615 120.782 53.8974 120.719 53.9032 120.585C53.91 120.432 53.9072 120.278 53.9135 120.124C53.9278 119.804 53.7813 119.629 53.4621 119.6C53.3089 119.586 53.1544 119.587 53.0017 119.572C52.7643 119.547 52.5984 119.661 52.571 119.902C52.5475 120.106 52.5178 120.317 52.5469 120.517C52.5818 120.755 52.4835 120.847 52.2838 120.934C52.011 121.053 51.7398 121.172 51.5265 121.41C51.2674 121.701 51.0105 121.972 50.8292 122.334C50.5621 122.87 50.5106 123.415 50.5564 123.986C50.5672 124.12 50.6147 124.268 50.6931 124.375C50.8487 124.586 51.0426 124.765 51.2994 124.861C51.463 124.922 51.6232 124.994 51.7827 125.065C52.1597 125.235 52.5281 125.426 52.9125 125.575C53.5091 125.809 54.005 126.169 54.3831 126.682C54.6325 127.02 54.4923 127.72 54.128 127.86C53.6412 128.046 53.1355 128.201 52.603 128.012C52.3313 127.915 52.1088 127.699 51.7999 127.687C51.7541 127.686 51.7118 127.627 51.6655 127.598C51.4487 127.462 51.2308 127.329 51.0231 127.2C50.7938 127.493 50.5844 127.757 50.3779 128.024C50.3321 128.084 50.2904 128.148 50.2566 128.215C50.1565 128.414 50.1708 128.459 50.3476 128.586C50.5066 128.7 50.6548 128.832 50.8224 128.931C51.0546 129.067 51.2456 129.273 51.5219 129.336C51.7725 129.392 52.0224 129.455 52.2712 129.521C52.3736 129.548 52.472 129.589 52.5921 129.631C52.5881 129.954 52.5841 130.257 52.5801 130.589C52.6716 130.783 52.8667 130.807 53.0892 130.781C53.1842 130.769 53.2825 130.789 53.3792 130.791C53.5188 130.795 53.6578 130.795 53.8208 130.798C53.8866 130.375 53.9484 129.976 54.0153 129.547C54.1823 129.494 54.3762 129.452 54.5518 129.372C55.181 129.081 55.7044 128.656 56.0665 128.061C56.46 127.413 56.5636 126.729 56.2101 126.027C55.9864 125.584 55.6152 125.277 55.1953 125.026Z" fill="#2D656F"/>
</svg>
