<svg width="276" height="200" viewBox="0 0 276 200" fill="none" xmlns="http://www.w3.org/2000/svg">
<path d="M131.166 62.2416C133.788 65.0192 135.257 69.358 133.26 73.9736C131.263 78.5893 132.239 85.8659 138.514 91.4174C141.493 94.0526 144.05 98.3062 143.341 103.79C142.067 113.656 123.976 117.238 118.051 118.379C107.582 120.394 102.78 111.771 100.356 105.556C97.9315 99.3394 100.797 86.3159 105.755 82.1381C110.713 77.9604 119.163 64.23 119.384 59.8569C119.605 55.4838 120.414 48.502 120.414 48.502L125.48 49.5416C125.48 49.5416 124.57 55.2562 131.166 62.2416Z" fill="#24372B"/>
<path d="M160.843 143.953C161.103 145.24 150.057 155.094 148.272 153.302C136.789 141.763 129.067 130.785 121.382 117.75C124.45 112.523 135.199 101.136 137.481 108.357C139.941 116.135 160.583 142.666 160.843 143.953Z" fill="#846854"/>
<path d="M126.58 130.215C126.58 130.215 147.718 125.282 147.718 123.838C147.718 120.507 135.474 98.7145 133.763 96.4807C132.053 94.2462 123.386 88.9265 117.305 91.0029C117.387 96.128 118.76 103.768 118.76 103.768L126.58 130.215Z" fill="#FBE2E0"/>
<path d="M117.553 91.7161C110.794 88.3855 110.031 73.1834 109.981 72.6947C109.931 72.2053 94.5702 72.0386 90.549 67.0029C94.0715 76.8625 99.0146 78.174 98.2648 83.9795C97.8467 87.2157 101.405 99.6195 111.863 95.969C115.437 94.7226 120.359 93.0992 117.553 91.7161Z" fill="#765C4C"/>
<path d="M93.5727 57.9727C93.1786 59.4172 93.1249 69.8978 96.9893 76.4546C98.5549 79.112 108.472 85.2903 112.283 85.5722C115.362 85.7997 116.902 83.6697 118.999 80.812C121.617 77.2467 122.911 72.7806 122.853 70.2491C122.697 63.595 126.004 57.9448 121.373 48.0773C120.322 45.8393 98.11 48.0637 98.11 48.0637L93.5727 57.9727Z" fill="#846854"/>
<path d="M115.698 65.849C116.494 66.4271 115.765 73.6007 109.009 72.9704C102.753 72.3865 102.081 64.5554 102.639 64.1769C102.639 64.1769 110.222 61.8673 115.698 65.849Z" stroke="white" stroke-width="0.000287687" stroke-miterlimit="10"/>
<path d="M126.317 67.5616C127.023 69.3847 125.156 74.4032 121.763 74.2286C117.061 73.9875 117.617 66.7553 118.034 66.4183C118.724 65.8595 125.61 65.7393 126.317 67.5616Z" stroke="white" stroke-width="0.000287687" stroke-miterlimit="10"/>
<path d="M115.918 67.7422C115.918 67.7422 116.953 67.62 117.641 68.0236" stroke="white" stroke-width="0.000287687" stroke-miterlimit="10"/>
<path d="M118.083 90.9397C115.83 89.6711 114.748 98.5855 104.443 93.6149C101.746 92.3142 98.9123 88.8554 96.7471 89.0808C87.9912 95.5396 85.095 106.326 83.7929 110.773C81.9739 120.656 80.2203 161.363 82.0378 167.633C82.2788 167.871 123.553 167.871 124.064 168.092C124.26 165.906 131.041 132.889 131.864 130.585C137.393 115.111 127.284 96.1127 118.083 90.9397Z" fill="#FBE2E0"/>
<path d="M145.606 167.601C145.606 167.601 93.5212 162.881 82.7808 161.441C80.6592 161.157 76.1212 158.224 76.7468 153.351C77.0807 150.752 81.3371 146.264 88.7995 146.128C90.8036 146.091 97.7449 147.405 105.478 149.435C133.545 156.801 147.706 159.6 147.706 159.6L145.606 167.601Z" fill="#846854"/>
<path d="M91.0796 160.445C90.7123 161.039 86.2738 161.301 81.8875 161.084C77.311 159.225 74.4171 155.141 74.3314 153.812C73.226 136.693 74.502 126.632 76.0807 109.994C76.5358 105.198 77.2922 100.59 78.3345 97.6741C79.5815 94.186 83.0844 92.051 83.0844 92.051C83.0844 92.051 92.7389 91.7762 96.6316 97.4508C97.4025 98.5742 97.3371 105.575 96.1983 112.254C95.042 119.027 91.8156 159.258 91.0796 160.445Z" fill="#846854"/>
<path d="M71.9306 133.123C72.4558 135.297 95.3407 132.401 95.3407 132.401C95.3407 132.401 103.677 96.7965 97.3758 91.0269C91.0743 85.2568 80.5984 93.2728 79.6544 93.8644C75.9369 96.1944 70.7243 128.127 71.9306 133.123Z" fill="#FBE2E0"/>
<path d="M93.6287 51.7632C93.6287 51.7632 84.6173 49.5423 86.2269 42.8803C87.8358 36.2182 95.8823 35.9014 98.1341 38.7558C100.387 41.6114 100.387 47.0044 100.387 47.0044L93.6287 51.7632Z" fill="#24372B"/>
<path d="M81.7724 43.4366C81.7724 43.4366 84.2674 50.8123 92.4736 51.5258" stroke="#0F1411" stroke-width="0.000287687" stroke-miterlimit="10"/>
<path d="M97.3725 91.027C96.8579 90.5554 96.3135 90.1848 95.751 89.8857C87.7797 96.4018 85.0433 106.51 83.7927 110.78C83.0153 115.006 83.0392 124.097 83.2287 133.623C89.214 133.175 95.338 132.401 95.338 132.401C95.338 132.401 103.674 96.7967 97.3725 91.027Z" fill="#F8D0CC"/>
<path d="M124.77 55.1072C124.77 55.1072 128.334 46.572 121.284 43.5211C114.98 40.7937 107.767 40.0316 98.7555 45.742C91.799 50.1502 89.1003 57.1628 81.3773 58.4314C65.1865 61.0916 66.2731 71.3597 66.2506 76.1971C66.2289 81.0353 61.4238 85.397 55.9516 86.9832C44.5282 90.296 41.4368 122.756 71.0782 117.121C74.8359 116.407 81.6422 110.874 81.0782 104.645C80.7356 100.87 80.4939 98.6387 82.0204 96.8177C83.5468 94.9975 87.703 93.6016 92.5836 93.8098C98.6408 94.0681 101.029 92.1112 102.454 86.6298C103.46 82.7532 100.267 71.6137 97.3677 68.63C92.6627 63.7883 94.4839 60.5285 98.3287 61.83C101.563 62.9247 101.575 61.7792 104.419 56.589C106.901 52.0563 114.153 50.7276 114.153 50.7276L124.77 55.1072Z" fill="#24372B"/>
<path d="M110.796 47.9881C108.662 47.8435 95.325 47.0064 91.1478 57.7159C89.241 62.6056 95.7881 69.2497 88.5623 73.054C81.3358 76.8576 74.7415 77.7448 74.8177 83.7665C74.8932 89.7881 77.1223 99.4709 72.4681 103.283C65.6111 108.9 55.1306 106.858 55.1306 106.858" stroke="#0F1411" stroke-width="0.000287687" stroke-miterlimit="10"/>
<path d="M50.1625 84.8392C51.4495 84.4428 60.7831 84.8392 61.7485 78.1772C62.7139 71.5152 63.4332 66.2771 67.2998 61.7602C73.8172 54.1458 83.4724 57.2389 93.1269 51.291" stroke="#0F1411" stroke-width="0.000287687" stroke-miterlimit="10"/>
<path d="M92.2803 51.3382C93.078 51.6394 93.6246 51.7746 93.6246 51.7746L100.382 47.0158C100.382 47.0158 100.379 46.1229 100.229 44.8779C99.7486 45.152 99.2644 45.4353 98.773 45.7473C96.1767 47.3929 94.1733 49.4013 92.2803 51.3382Z" fill="#121F16"/>
<path d="M92.1653 51.0449C92.1653 51.0449 95.9467 46.1274 100.533 44.462" stroke="#FF0000" stroke-width="0.000575374" stroke-miterlimit="10"/>
<path d="M146.603 163.109L110.892 162.93C110.892 162.93 110.587 163.489 110.99 165.112C111.285 166.296 112.577 167.208 114.335 167.372C116.342 167.559 146.211 167.839 146.211 167.839" fill="white"/>
<path d="M146.603 163.109L110.892 162.93C110.892 162.93 110.587 163.489 110.99 165.112C111.285 166.296 112.577 167.208 114.335 167.372C116.342 167.559 146.211 167.839 146.211 167.839" stroke="#C7C6B6" stroke-width="0.000287687" stroke-miterlimit="10"/>
<path d="M129.353 107.419C129.353 107.419 135.145 118.363 132.49 128.595" stroke="#EDB9B6" stroke-width="0.000287687" stroke-miterlimit="10"/>
<path d="M92.7359 59.9457C91.6194 60.5535 89.6086 64.2005 90.8375 67.8469C92.3961 72.4752 95.1652 73.314 97.5378 72.3446C99.9116 71.3762 102.107 67.0646 100.03 62.8666C97.9536 58.6691 94.299 59.0947 92.7359 59.9457Z" fill="#9EC8CF"/>
<path d="M123.692 54.63C123.692 54.63 121.038 46.937 111.704 46.7782C100.119 46.5814 96.1353 56.8903 96.0148 59.6263" stroke="#9EC8CF" stroke-width="0.000287687" stroke-miterlimit="10"/>
<path d="M92.467 62.2486C91.1228 62.9398 90.4702 64.6387 90.8984 66.6068C91.3257 68.5744 92.6093 70.403 94.6061 70.8238C96.6025 71.2462 98.077 69.2435 97.9737 66.9925C97.853 64.3751 95.747 60.562 92.467 62.2486Z" stroke="white" stroke-width="0.000287687" stroke-miterlimit="10"/>
<path d="M97.221 72.2227C97.221 72.2227 101.084 83.4048 117.621 83.6272" stroke="#9EC8CF" stroke-width="0.000287687" stroke-miterlimit="10"/>
<path d="M119.79 82.6676C119.79 82.6676 118.58 82.4165 118.072 82.8794C117.565 83.3423 117.638 84.3011 118.175 84.5772C118.711 84.8534 120.155 84.8363 120.155 84.8363" stroke="#9EC8CF" stroke-width="0.000287687" stroke-miterlimit="10"/>
<path d="M121.185 81.2437C121.739 81.0012 123.273 80.8702 123.907 81.7338C124.54 82.5982 124.508 83.7093 124.304 84.2717C124.101 84.8341 123.535 85.5274 122.839 85.6948C122.021 85.8923 121.017 85.6333 120.552 85.2627C119.89 84.7332 119.435 83.0661 120.078 82.191C120.719 81.3167 121.185 81.2437 121.185 81.2437Z" stroke="#9EC8CF" stroke-width="0.000287687" stroke-miterlimit="10"/>
<path d="M162.233 58.8438L212.958 58.6177" stroke="#345848" stroke-width="0.000287687" stroke-miterlimit="10"/>
<path d="M162.001 63.8145L201.709 64.0405" stroke="#345848" stroke-width="0.000287687" stroke-miterlimit="10"/>
<path d="M126.929 57.002C129.021 61.2849 134.191 63.9373 135.457 67.9469C138.515 77.6226 130.148 78.8919 134.17 86.3466C136.542 90.7419 144.951 95.2295 144.951 95.2295" stroke="#24372B" stroke-width="0.000287687" stroke-miterlimit="10"/>
<path d="M145.606 167.601C145.606 167.601 93.5212 162.881 82.7808 161.441C80.6592 161.157 76.1212 158.224 76.7468 153.351C77.0807 150.752 81.3371 146.264 88.7995 146.128C90.8036 146.091 97.7449 147.405 105.478 149.435C133.545 156.801 147.706 159.6 147.706 159.6L145.606 167.601Z" fill="#846854"/>
<path d="M96.201 112.25C95.0444 119.023 91.8185 159.254 91.0824 160.441L96.201 112.25Z" fill="#846854"/>
<path d="M91.0837 160.454C91.3588 160.011 91.9794 154.134 92.7103 146.589C90.8964 146.279 89.5231 146.114 88.8002 146.128C81.337 146.264 77.0807 150.751 76.7468 153.351C76.3664 156.314 77.8965 158.554 79.6306 159.923C80.3288 160.364 81.0823 160.765 81.8916 161.093C86.2779 161.31 90.7164 161.048 91.0837 160.454Z" fill="#765C4C"/>
<path d="M190.396 134.614C188.43 134.517 184.2 136.55 184.298 140.422C184.396 144.295 186.363 146.717 190.2 146.523C194.037 146.329 196.005 143.647 196.005 141.004C196.005 138.777 194.828 134.832 190.396 134.614Z" stroke="#C7C6B6" stroke-width="0.000287687" stroke-miterlimit="10"/>
<path d="M64.1878 167.642L225.614 168.17L225.936 173.564L62.9068 173.432L64.1878 167.642Z" fill="#C4C4C4" stroke="#24372B" stroke-width="0.000287687" stroke-miterlimit="10"/>
<path d="M159.257 109.596L236.874 109.596L223.291 168.891L145.675 168.891L159.257 109.596Z" fill="#C4C4C4"/>
</svg>
